<svg id="Ebene_1" data-name="Ebene 1" xmlns="http://www.w3.org/2000/svg" viewBox="0 0 94.5 94.5"><defs><style>.cls-1{fill:#fff;}</style></defs><title>portfolio_sun</title><path class="cls-1" d="M47.25,75.58A28.33,28.33,0,1,0,18.92,47.25,28.36,28.36,0,0,0,47.25,75.58Zm0-46.66A18.33,18.33,0,1,1,28.92,47.25,18.35,18.35,0,0,1,47.25,28.92Z"/><rect class="cls-1" x="42.25" y="4.73" width="10" height="9.52"/><rect class="cls-1" x="42.25" y="80.25" width="10" height="9.52"/><rect class="cls-1" x="80.25" y="42.25" width="9.52" height="10"/><rect class="cls-1" x="4.73" y="42.25" width="9.52" height="10"/><rect class="cls-1" x="69.19" y="15.55" width="9.52" height="10" transform="translate(7.13 58.31) rotate(-45)"/><rect class="cls-1" x="15.79" y="68.95" width="9.52" height="10" transform="translate(-46.27 36.19) rotate(-45)"/><rect class="cls-1" x="68.95" y="69.19" width="10" height="9.52" transform="translate(-30.63 73.95) rotate(-45)"/><rect class="cls-1" x="15.55" y="15.79" width="10" height="9.52" transform="translate(-8.51 20.55) rotate(-45)"/></svg>