<svg id="f20f7848-a21f-4541-af01-f4fbcacfa33e" data-name="Ebene 1" xmlns="http://www.w3.org/2000/svg" viewBox="0 0 125.28 36.21"><defs><style>.bc796ce6-5771-465a-81d3-3d0510352321{fill:#333;}</style></defs><title>portfolio_battenberg</title><path class="bc796ce6-5771-465a-81d3-3d0510352321" d="M21,3.39A11.09,11.09,0,0,0,17.44,1,10.93,10.93,0,0,0,13,.09H1.1C.37.09,0,.48,0,1.24V34.68a.93.93,0,0,0,1.06,1H3.58a.93.93,0,0,0,1-1V22.27h8.52a10.53,10.53,0,0,0,4.36-.9A11.24,11.24,0,0,0,21,18.94a11.07,11.07,0,0,0,2.3-3.51,10.89,10.89,0,0,0,.83-4.2A11.19,11.19,0,0,0,21,3.39ZM19,13.65a6.74,6.74,0,0,1-1.4,2.08,6.67,6.67,0,0,1-2.07,1.43,6,6,0,0,1-2.47.53H4.63v-13H13a5.94,5.94,0,0,1,2.52.54A6.66,6.66,0,0,1,17.6,6.66,6.58,6.58,0,0,1,19,8.73a6.11,6.11,0,0,1,.51,2.45A6,6,0,0,1,19,13.65Z"/><path class="bc796ce6-5771-465a-81d3-3d0510352321" d="M52.85,18.74a14.83,14.83,0,0,0-3.33-1.85c-1.24-.49-2.5-.94-3.79-1.34s-2.55-.78-3.79-1.14a23.49,23.49,0,0,1-3.32-1.21,7.86,7.86,0,0,1-2.36-1.59,3.09,3.09,0,0,1-.88-2.25,4.68,4.68,0,0,1,.42-1.91,4.87,4.87,0,0,1,1.3-1.71,7,7,0,0,1,2.26-1.21,10.48,10.48,0,0,1,3.26-.45,8.59,8.59,0,0,1,3,.51,15.8,15.8,0,0,1,2.51,1.17A14.37,14.37,0,0,1,50,7c.51.41.88.7,1.1.84a1.16,1.16,0,0,0,.73.36,1.06,1.06,0,0,0,.78-.34l1.71-1.63a1,1,0,0,0,.37-.75,1.18,1.18,0,0,0-.35-.76A12.5,12.5,0,0,0,52,2.65,16.76,16.76,0,0,0,49.12,1,17.76,17.76,0,0,0,45.94,0a13.57,13.57,0,0,0-3.15-.39A16.37,16.37,0,0,0,37.72.3a11.65,11.65,0,0,0-3.88,2.05,9.13,9.13,0,0,0-2.48,3.13,9,9,0,0,0-.88,4,7.53,7.53,0,0,0,.62,3.1,7,7,0,0,0,2,2.5,14.42,14.42,0,0,0,3.4,2,39.31,39.31,0,0,0,4.94,1.77l3.92,1.18a18.81,18.81,0,0,1,3.21,1.28A7.1,7.1,0,0,1,50.7,23a3.43,3.43,0,0,1,.8,2.32,5,5,0,0,1-.81,2.84,6.77,6.77,0,0,1-2.09,2,9.5,9.5,0,0,1-2.81,1.18,12.12,12.12,0,0,1-3,.39,9.14,9.14,0,0,1-2-.27,15.24,15.24,0,0,1-2.46-.8,16.89,16.89,0,0,1-2.57-1.37,11,11,0,0,1-2.29-2L33.17,27a1,1,0,0,0-.7-.42,1.13,1.13,0,0,0-.79.3l-1.9,1.58a1,1,0,0,0-.42.72,1.23,1.23,0,0,0,.3.77,14.56,14.56,0,0,0,2.62,2.64,16.84,16.84,0,0,0,3.16,2,16.92,16.92,0,0,0,7.23,1.64,16.94,16.94,0,0,0,5.26-.79,13.3,13.3,0,0,0,4.26-2.24A10.51,10.51,0,0,0,55,29.67a9.86,9.86,0,0,0,1.05-4.57,7.34,7.34,0,0,0-.89-3.72A9,9,0,0,0,52.85,18.74Z"/><path class="bc796ce6-5771-465a-81d3-3d0510352321" d="M87.7,16.56a9.11,9.11,0,0,0,1.59-2.78,9.56,9.56,0,0,0,.57-3.34,10.18,10.18,0,0,0-.82-4A10.4,10.4,0,0,0,83.54.9a9.87,9.87,0,0,0-4-.81H63.62a1,1,0,0,0-.78.3,1.17,1.17,0,0,0-.27.81V34.7a1,1,0,0,0,.29.78,1.09,1.09,0,0,0,.76.25H81a9.78,9.78,0,0,0,4-.86,10.9,10.9,0,0,0,3.33-2.34A11.45,11.45,0,0,0,90.6,29.1,10.42,10.42,0,0,0,91.44,25a11,11,0,0,0-1-4.64A11.66,11.66,0,0,0,87.7,16.56ZM71.86,7.17H77a3.87,3.87,0,0,1,1.46.28,3.57,3.57,0,0,1,1.16.75,3.38,3.38,0,0,1,1,2.45,3.41,3.41,0,0,1-.28,1.41,3.24,3.24,0,0,1-.76,1.1,3.35,3.35,0,0,1-1.16.72,4.31,4.31,0,0,1-1.51.25H71.86Zm9.77,18.91a4.05,4.05,0,0,1-.78,1.29,3.86,3.86,0,0,1-1.18.9,3.27,3.27,0,0,1-1.46.34H71.86v-8h6.35a3.14,3.14,0,0,1,1.48.36,4.08,4.08,0,0,1,1.17.92,4.21,4.21,0,0,1,.77,1.29,3.88,3.88,0,0,1,.28,1.44A3.93,3.93,0,0,1,81.63,26.08Z"/><path class="bc796ce6-5771-465a-81d3-3d0510352321" d="M124.27,20.32a11.54,11.54,0,0,0-2.74-3.76,9.13,9.13,0,0,0,1.6-2.78,9.56,9.56,0,0,0,.56-3.34,10.17,10.17,0,0,0-.81-4,10.68,10.68,0,0,0-2.22-3.28A10.26,10.26,0,0,0,117.38.9a9.91,9.91,0,0,0-4-.81H97.46a1,1,0,0,0-.78.3,1.17,1.17,0,0,0-.27.81V34.7a1,1,0,0,0,.28.78,1.13,1.13,0,0,0,.77.25h17.35a9.71,9.71,0,0,0,4-.86,10.82,10.82,0,0,0,3.34-2.34,11.45,11.45,0,0,0,2.27-3.43,10.42,10.42,0,0,0,.84-4.14A11,11,0,0,0,124.27,20.32ZM105.69,7.17h5.16a3.91,3.91,0,0,1,1.46.28,3.57,3.57,0,0,1,1.16.75,3.49,3.49,0,0,1,1,2.45,3.41,3.41,0,0,1-.28,1.41,3.24,3.24,0,0,1-.76,1.1,3.35,3.35,0,0,1-1.16.72,4.31,4.31,0,0,1-1.51.25h-5.08Zm9.78,18.91a4.05,4.05,0,0,1-.78,1.29,3.86,3.86,0,0,1-1.18.9,3.27,3.27,0,0,1-1.46.34h-6.36v-8h6.36a3.14,3.14,0,0,1,1.48.36,4.08,4.08,0,0,1,1.17.92,4.21,4.21,0,0,1,.77,1.29,3.88,3.88,0,0,1,.28,1.44A3.93,3.93,0,0,1,115.47,26.08Z"/></svg>