<svg id="f44c72c6-ab6a-4fb4-813d-6bba393c34ac" data-name="Ebene 1" xmlns="http://www.w3.org/2000/svg" viewBox="0 0 230.64 86.28"><defs><style>.a4d7c600-d7ca-4f3e-a81c-d8a5aaef3834{fill:#333;}</style></defs><title>portfolio_aupair</title><path class="a4d7c600-d7ca-4f3e-a81c-d8a5aaef3834" d="M117.7,60.39c4.72,4.22,7.29,4,11.18-1,.65-.83,1.25-1.7,1.86-2.56l1.47-2c1.71,4.38,3,6.15,5.17,7.53s4.2,1.53,6.2-.07,3.85-3.24,5.69-5c1.25-1.17,2.36-2.49,3.7-3.92.57,4.81,3.37,7.52,7.16,9.44a3.84,3.84,0,0,0,4.84-.59c1.56-1.51,3.15-3,4.68-4.53a12.72,12.72,0,0,0,1.27-1.78c.85,4.57,3.82,7.37,7.77,7.21A2.29,2.29,0,0,0,180.25,62c1.34-2.71,2.1-5.83,3.91-8.15,3.65-4.71,7.81-9,11.83-13.45,1.38-1.52,3-2.85,4.46-4.26a22.35,22.35,0,0,1-1.64,3.52,6.32,6.32,0,0,0-.92,3.13c.54,3.28,2.83,5.29,5.71,6.64,2.49,1.16,4.4-.15,5.93-1.83,3.82-4.21,7.52-8.52,11.21-12.84a13.37,13.37,0,0,0,1.33-2.34l-.52-.5L207.93,42.68l-.47-.51L213.67,32c1.33-2.17,1.16-3.47-.7-5.26s-3.38-2.23-5.34-.68c-5.06,4-10,8.12-15,12.22-1,.84-2,1.79-2.94,2.69a81.09,81.09,0,0,1,4.39-8.33c1.54-2.68,1.31-3.6-1.34-5.29a13.38,13.38,0,0,0-2-1,1.84,1.84,0,0,0-2.56.74c-.86,1.33-1.86,2.57-2.73,3.89-2.32,3.53-4.2,7.45-7,10.52-3.7,4-8.11,7.43-12.26,11.06a8.44,8.44,0,0,1-1.79.94l-.49-.31a33.08,33.08,0,0,1,1.42-4c2.66-5.29,5.41-10.52,8.15-15.77.91-1.75.66-2.8-1-3.87a4.93,4.93,0,0,0-6.71.92c-1.45,1.77-2.81,3.62-4.11,5.49-1.1,1.59-1.8,3.54-3.14,4.86C154.26,45,149.81,49,145.4,53a9.83,9.83,0,0,1-2,1.13l-.45-.35a16.39,16.39,0,0,1,1.1-3c3-5,6.1-10,9.29-14.92.83-1.29.76-2.19-.4-3s-2.65-1.46-4-2.23a10.11,10.11,0,0,1-2.19-1.56c-2.33-2.47-5.11-3.78-8.51-3.14a22.09,22.09,0,0,0-5.33,1.7c-6.34,3-10.8,8.06-14.74,13.75-1.62,2.33-3.88,4.23-5.85,6.32l-.36-.29c.26-.63.55-1.26.76-1.91,1-3.06,2.13-6.08,2.86-9.2a7.56,7.56,0,0,0-5.33-8.75c-3.25-1-5.75.5-7.92,2.6s-4,4.3-6.1,6.65a4.19,4.19,0,0,1,.14-.59c1.47-2.81,3-5.6,4.39-8.42,1.11-2.15.91-2.76-1.2-3.86A15.38,15.38,0,0,0,98,23.33a2.77,2.77,0,0,0-3.86,1.26q-3.65,6.21-7.48,12.32a28.17,28.17,0,0,1-3.75,5.24c-3.66,3.62-7.53,7.05-11.37,10.49a10.91,10.91,0,0,1-2.29,1.23l-.44-.43a19.3,19.3,0,0,1,1.07-3q4.38-8,8.88-16c1.52-2.69,1.26-3.78-1.46-5.31a15.8,15.8,0,0,0-1.93-.83c-1.36-.55-2.27-.26-3.24,1C66.33,36.91,60.44,44.44,54.54,52A11.94,11.94,0,0,1,52,54.32a8.86,8.86,0,0,1-2.19.77,9.19,9.19,0,0,1,0-2.28,9.55,9.55,0,0,1,1.06-2.59c3.69-6.53,7.42-13,11.1-19.57.38-.68.88-1.63.68-2.23-.67-1.9-2.54-2.39-4.26-3a2.31,2.31,0,0,0-2.87,1c-2.57,3.35-5.31,6.59-7.64,10.1C43.36,43.16,37.34,48.18,31.3,53.19a9.44,9.44,0,0,1-1.88.94L29,53.76a16.69,16.69,0,0,1,1.09-2.84c3.06-5.06,6.15-10.11,9.34-15.08.79-1.22.69-2-.33-2.86a6.75,6.75,0,0,0-1.58-1.11,23.16,23.16,0,0,1-6.34-4.11c-3.34-2.93-7.29-2.24-10.94-.59C10.83,31.43,4.7,38.85,1,48.34c-2.2,5.71-.93,9.34,4,13.06,3.76,2.87,6,2.66,9.06-.89.69-.8,1.33-1.64,2-2.49.74-1,1.44-2.07,2.37-3.41a11.74,11.74,0,0,0,4.9,7.64c2.08,1.4,4.28,1.74,6.34,0,2.26-1.86,4.42-3.83,6.55-5.84,1.21-1.14,2.26-2.45,3.13-3.41,1.3,2.32,2.31,4.8,3.9,6.81,3.43,4.34,6.21,4.49,10.42,1,1-.87,2-1.85,2.91-2.81s1.61-1.76,2.51-2.74l.76,1.42a13.47,13.47,0,0,0,5.93,5.83c1.92,1,3.71.95,5.32-.63C72,61,73,60,74,59.07s1.88-2.08,3.1-3.44c-1.19,3.56-2.36,6.63-3.19,9.78A8.15,8.15,0,0,0,80.75,76c1.23.27,1.69-.25,1.8-1.46.16-1.66.1-3.48.78-4.92,2.88-6.08,5.68-12.24,9.11-18,3.7-6.23,8-12.08,12.18-18.06a12.43,12.43,0,0,1,2.23-2l.51.3a10.85,10.85,0,0,1-.13,2.14c-1.69,6.63-5,12.48-8.92,18a4.93,4.93,0,0,1-3.26,2.11c-2.83.56-3.46,1.87-2.34,4.58a10.1,10.1,0,0,0,1.56,2.52c2.68,3.22,5.08,3.42,8.29.73.81-.68,1.48-1.51,2.27-2.21,2.92-2.59,5.86-5.16,8.86-7.79C114.43,56.57,115.18,58.13,117.7,60.39ZM125,50.68A35.52,35.52,0,0,1,138.64,34.2a8.11,8.11,0,0,1,5.78-1.36c0,.3,0,.45,0,.51L127.53,52.21a.45.45,0,0,1-.13.11l-2.58,1A7.72,7.72,0,0,1,125,50.68ZM25.86,38.94q-5.25,5.93-10.6,11.74a21.35,21.35,0,0,1-2.95,2.49c-.31.23-1.05.37-1.24.18A1.77,1.77,0,0,1,10.64,52a7.57,7.57,0,0,1,.69-2.16A38.39,38.39,0,0,1,23.14,35.21c2.14-1.57,4.47-2.78,7.75-2.33C29.05,35.1,27.52,37.08,25.86,38.94Z"/><path class="a4d7c600-d7ca-4f3e-a81c-d8a5aaef3834" d="M227,68.42c-.36,5.38-4.65,5.39-8.23,6a71.19,71.19,0,0,1-11.37,1c-10,.08-20.06,0-30.09-.16-6.45-.08-12.9-.46-19.35-.49-10.85-.06-21.69,0-32.53.12a16.6,16.6,0,0,0-9.74,3.15,8.49,8.49,0,0,0-2.41,2.69,1.93,1.93,0,0,0,1.12,2.75,2.69,2.69,0,0,0,1.84-.1c.36-2,2-1.88,3.3-1.91,5.8-.15,11.61-.35,17.4-.09,10,.46,20,1.23,30,1.9,13.75.92,27.49,1.9,41.24,2.77,4.2.27,8.45.6,12.5-1.07,4.91-2,8.67-5.15,9.78-10.65C231.07,71.46,230,69.65,227,68.42Z"/><path class="a4d7c600-d7ca-4f3e-a81c-d8a5aaef3834" d="M92.26,9.52a86.05,86.05,0,0,0,12.34,1.66c11.83.45,23.69.49,35.52.94a48.64,48.64,0,0,1,10.17,1.79c2.56.66,4.54,2.23,4.46,5.34a4,4,0,0,0,.37,1.26l.59.19a14.18,14.18,0,0,0,1.6-3.4,14.86,14.86,0,0,0-3.77-12.86,8.3,8.3,0,0,0-6.44-3.16c-6.33.08-12.67.16-19,.47-9.6.47-19.19,1.2-28.79,1.66a52.79,52.79,0,0,1-8.42-.48c-1.6-.19-3.35-.54-3.33-2.93-2,.54-2.64,2.22-1.73,4.26A8.63,8.63,0,0,0,92.26,9.52Z"/><path class="a4d7c600-d7ca-4f3e-a81c-d8a5aaef3834" d="M207.93,65.84c1.26.87,2.56,1.29,3.8,0,1.58-1.65,3.15-3.31,4.65-5a4.91,4.91,0,0,0,.59-1.56l-.33-.14-5.44,4.58-.37-.28a15.36,15.36,0,0,1,.61-1.51c.71-1.42,1.42-2.83,2.2-4.2.62-1.08.19-1.8-.8-2a3.69,3.69,0,0,0-2.42.45c-1.61,1-3.08,2.27-4.61,3.44l-.31-.19,4.64-7.86c-1.77-1.26-2.34-1.25-3.52.37A67.37,67.37,0,0,0,202.47,58a16.6,16.6,0,0,1-6.83,6.13,3.86,3.86,0,0,1-2.34.5,2.18,2.18,0,0,1-1.45-1.38c-.36-2,3.16-6.1,5.62-6.4-.63,1.39-1.2,2.62-1.81,4a4.81,4.81,0,0,0,3.76-2.54,2,2,0,0,0-.16-1.75,4.45,4.45,0,0,0-5.21-1.29,10.87,10.87,0,0,0-5.44,6.39,3.25,3.25,0,0,0,.91,3.53c2.1,2.09,4.09,2.39,6.66.82,1.14-.7,2.2-1.56,3.41-2.43,0,.66-.08,1.18.12,1.45a8,8,0,0,0,1.89,1.88c.14.09,1-.79,1.43-1.31,1.91-2.31,3.79-4.66,5.67-7l.48.36c-.62,1.22-1.21,2.47-1.85,3.68S206.68,65,207.93,65.84Z"/><path class="a4d7c600-d7ca-4f3e-a81c-d8a5aaef3834" d="M177.41,25.2A18.61,18.61,0,0,0,183,20.85a3.35,3.35,0,0,0-.87-5.51A43.07,43.07,0,0,0,176,12.93c-1.25.74-2.8,1.13-3.35,2.09a13,13,0,0,0-1.9,5.67C170.54,24.72,173.72,26.89,177.41,25.2Z"/></svg>