<svg id="f7ad2090-6694-48fe-83a4-04ff78eec732" data-name="Ebene 1" xmlns="http://www.w3.org/2000/svg" viewBox="0 0 76.16 102.12"><defs><style>.b9801354-5655-454a-8dfc-36499ea59b88{fill:#ccc;}</style></defs><title>portfolio_swisscom_bright</title><path class="b9801354-5655-454a-8dfc-36499ea59b88" d="M24.33,76.58c-.88-4.26-3.49-8.73-7.49-13a14.22,14.22,0,0,0-2.31,7.55c0,5.48,4.2,12.38,13.4,17.57-.42-1-.8-1.86-1.13-2.86A73.88,73.88,0,0,1,24.33,76.58Z"/><path class="b9801354-5655-454a-8dfc-36499ea59b88" d="M62.55,41.6A42.53,42.53,0,0,0,63,35.22c0-13.64-8.45-21.65-16.85-24.52a22.48,22.48,0,0,0-6.75-1.23,15.51,15.51,0,0,0-2.64.22V23.1c2,1.53,4.7,3.35,7.75,5.41A208.1,208.1,0,0,1,62.55,41.6Z"/><path class="b9801354-5655-454a-8dfc-36499ea59b88" d="M34.06,21V.11A5.68,5.68,0,0,0,32.57,0a13.25,13.25,0,0,0-3.69.76A9.5,9.5,0,0,0,26,2.41a5.52,5.52,0,0,0-1.92,3.13,5.33,5.33,0,0,0-.12,1.12C23.93,11.89,29.45,17.19,34.06,21Z"/><path class="b9801354-5655-454a-8dfc-36499ea59b88" d="M75.53,63.75a26.1,26.1,0,0,0-3.28-7.42,47.36,47.36,0,0,0-6.12-7.64h-.08c-1.28-1.33-2.67-2.67-4.17-4C53.25,37,40,29.17,34.05,24.44c-5.17-4.05-10-8.59-11.62-12.94l-1,.77C18.87,14.15,16.29,16,13.8,18,12.16,19.27,10.55,20.61,9,22a45.27,45.27,0,0,0-4.27,4.38C2.27,29.42.32,32.8,0,36.63a11.8,11.8,0,0,0,0,1.88,12,12,0,0,0,.26,2,15.79,15.79,0,0,0,2.94,6.4,36.8,36.8,0,0,0,5.5,5.66l1,.88c2.35,2,4.74,4,7,6.19A38.8,38.8,0,0,1,25,70.51c1.85,4.07,2.43,8.44,3.67,12.68.14.45.28.9.43,1.36.22.66.46,1.33.74,2a13,13,0,0,0,1.53,2.82V72.17c-3.84-2.86-2.86-8.86-5-12.76-3-5.37-13.06-7-11.43-14.75,1.12-5.27,8.37-4.36,11.18-8.21,1.35-1.84,1.84-4.1,2.76-6.14a6.38,6.38,0,0,1,5.21-4v75.81a56.11,56.11,0,0,0,5.78-.78,61.46,61.46,0,0,0,7.54-1.86,60.35,60.35,0,0,0,6.38-2.38,50.62,50.62,0,0,0,5.45-2.76,43.22,43.22,0,0,0,6.43-4.51,33.23,33.23,0,0,0,5.91-6.51,25.86,25.86,0,0,0,4.56-13.64A20.46,20.46,0,0,0,75.53,63.75Z"/></svg>