<svg id="e9d63873-2123-40ea-88be-36f27cba906d" data-name="Ebene 1" xmlns="http://www.w3.org/2000/svg" viewBox="0 0 70.36 70.35"><defs><style>.aed52973-6315-481f-ab4c-731b2b08f9e8{fill:#333;}</style></defs><title>portfolio_optasia</title><path class="aed52973-6315-481f-ab4c-731b2b08f9e8" d="M61.46,35.17c-.5,0-.6.23-.63.67a29.16,29.16,0,0,1-.64,4.84A25.6,25.6,0,0,1,52,54.44a25.09,25.09,0,0,1-9.51,5.24,25.68,25.68,0,0,1-26.68-7.75,23.75,23.75,0,0,1-4.46-7.44A25.66,25.66,0,0,1,19.41,15,24.88,24.88,0,0,1,31.64,9.81a25.31,25.31,0,0,1,15,2.5A26.08,26.08,0,0,1,51,15c.36.28.68.46,1.07,0,1.74-2.11,3.5-4.2,5.27-6.29.33-.38.36-.6-.1-.93A41.63,41.63,0,0,0,46.46,2,35.25,35.25,0,0,0,38.28.15a29.46,29.46,0,0,0-7.2.15A37.42,37.42,0,0,0,17.32,5a35,35,0,0,0-12,11.76,37.14,37.14,0,0,0-3.81,8.48A36.4,36.4,0,0,0,.15,32.3a27.31,27.31,0,0,0,.24,7.49,38.22,38.22,0,0,0,4,12A35,35,0,0,0,31.64,70c.26,0,.5,0,.61.32h5.48c.12-.29.37-.28.62-.3A35,35,0,0,0,68.63,45.59a36.5,36.5,0,0,0,1.46-7.52c0-.24,0-.51.27-.64V35.2Z"/><path class="aed52973-6315-481f-ab4c-731b2b08f9e8" d="M56.67,34.65a28.76,28.76,0,0,0-1.24-6.44A21.25,21.25,0,0,0,44.08,15.69a23.53,23.53,0,0,0-8.29-2c-.48,0-.64.11-.63.62,0,2.18,0,4.35,0,6.52,0,.74.23,1,1,1a13.1,13.1,0,0,1,9.74,5.3,13.45,13.45,0,0,1,2.66,7.33c0,.57.28.7.79.69,1.06,0,2.13,0,3.19,0H56C56.34,35.18,56.73,35.16,56.67,34.65Z"/><path class="aed52973-6315-481f-ab4c-731b2b08f9e8" d="M34.06,48.43a11.18,11.18,0,0,1-4.2-1.07,13.09,13.09,0,0,1-8-11.38c-.05-.67-.29-.84-.9-.82-1.09,0-2.18,0-3.26,0h0c-1.11,0-2.23,0-3.34,0-.54,0-.7.15-.66.66a27.73,27.73,0,0,0,.66,4.46,21.52,21.52,0,0,0,20.06,16.3c.61,0,.77-.18.77-.75,0-2,0-4.1,0-6.15C35.19,48.55,35.16,48.48,34.06,48.43Z"/><path class="aed52973-6315-481f-ab4c-731b2b08f9e8" d="M35.24,35.13h0v-8.3c0-1.84,0-1.84-1.8-1.56a9.85,9.85,0,0,0-4.37,17.6,8.38,8.38,0,0,0,5.32,2.3c.7,0,.88-.19.87-.86C35.22,41.25,35.24,38.19,35.24,35.13Z"/><path class="aed52973-6315-481f-ab4c-731b2b08f9e8" d="M47.35,42.13c-.47-.28-.7-.16-1,.23a13.73,13.73,0,0,1-3.93,4,.7.7,0,0,0-.26,1.1c1.11,1.89,2.22,3.78,3.3,5.69.32.56.65.54,1.12.22a25.6,25.6,0,0,0,6.7-6.71c.12-.18.21-.39.29-.53,0-.37-.26-.46-.47-.59C51.21,44.38,49.26,43.28,47.35,42.13Z"/><path class="aed52973-6315-481f-ab4c-731b2b08f9e8" d="M55.41,17.64a4.71,4.71,0,0,0,9.42.08,4.71,4.71,0,0,0-9.42-.08Z"/><path class="aed52973-6315-481f-ab4c-731b2b08f9e8" d="M59.94,27.18A4.61,4.61,0,0,0,64.58,32a4.69,4.69,0,0,0,4.72-4.66,4.74,4.74,0,0,0-4.62-4.71C62.23,22.48,59.75,24.76,59.94,27.18Z"/></svg>