<svg id="e34cae8f-69ed-49a8-bdd9-d9a8c291a685" data-name="Ebene 1" xmlns="http://www.w3.org/2000/svg" viewBox="0 0 77.46 116.9"><defs><style>.a035eccc-4473-4881-8c88-c15350946f20{fill:#ccc;}</style></defs><title>portfolio_madretsch_bright</title><path class="a035eccc-4473-4881-8c88-c15350946f20" d="M74.72,83.85c-4.15-6.79-4.67-13.63-2.87-20.94C77,41.9,60,24.79,40,29.29c-11.2,2.52-21.28,8.44-25.2,19.24-7.58,20.82-.29,39,13.62,55.05,4.3,5,9.35,7.69,15.69,10.63,7.71,3.26,15.39,3.91,23.13,0S81.26,94.55,74.72,83.85Z"/><path class="a035eccc-4473-4881-8c88-c15350946f20" d="M27.51,28.85c4,.4,7.48-1.25,8.53-5.35.51-2-2.35-9.57-3.49-10.78-1.4-1.47-2.46-4.11-4.82-3.53-2.52.62-2.92,3.41-3.75,5.64a13.29,13.29,0,0,0-.45,7C24,24.57,23.42,28.44,27.51,28.85Z"/><path class="a035eccc-4473-4881-8c88-c15350946f20" d="M55.93,22.71c3.42-4.3,2.08-9-.41-13.24C52.14,3.71,42.88-1.64,40.21.6s-2.4,7-3.41,10.48c-.42,1.46,2.61,9.93,4.09,11.27C45,26.05,53.19,26.17,55.93,22.71Z"/><path class="a035eccc-4473-4881-8c88-c15350946f20" d="M12,41.19c-.11-1.74-.74-5-2.1-6.36s-5.87-3.4-8.74.11c-1.28,2.89-1.73,5,.09,7.6,1,.52,1.83.82,2.17,2,.68,2.27,1.28,4.89,4.5,4.41C11.44,48.41,12.12,43.77,12,41.19Z"/><path class="a035eccc-4473-4881-8c88-c15350946f20" d="M15.32,37.27c4.68-.16,6-3.3,6.27-6.75C21.9,26.7,21,22.86,17.89,20c-1.85-1.67-3.11-2.14-4.76.64C10.56,25,10.57,32.1,11.27,33.33S14.28,37.31,15.32,37.27Z"/></svg>