<svg id="ab03b949-8918-455e-9de6-f42d673e8366" data-name="Ebene 1" xmlns="http://www.w3.org/2000/svg" viewBox="0 0 57.04 57.04"><defs><style>.ed042042-4501-4d09-bdcb-cfadae2c940e{fill:#ccc;}</style></defs><title>portfolio_mgd_bright</title><path class="ed042042-4501-4d09-bdcb-cfadae2c940e" d="M28.52,0A28.52,28.52,0,1,0,57,28.52,28.55,28.55,0,0,0,28.52,0Zm9,52.39c2-4.54,2.77-13.54,1.88-15.45-1.08-2.35-4.78-6.32-5.77-10s-5.11-12-9.82-18.06a83.14,83.14,0,0,1-.57,9.35q-.16,1.68-.33,3.54c-.55,6.21,1.3,10.57,3.43,15.62a71.65,71.65,0,0,1,3.62,10c.55,2.07.07,2,.13,3.48-1.43-1.27-2.55-.91-3-2.71a70.47,70.47,0,0,0-3.48-9.58c-2.2-5.19-4.27-10.1-3.66-17,.11-1.25.23-2.44.33-3.57.53-5.43.91-9.39.14-12.89h0C17.79,6.58,15.24,12.29,10,23.61c-5.88,12.61,2,20.91,3.55,23.25A39.19,39.19,0,0,0,18.61,52a25.52,25.52,0,1,1,18.92.36Z"/><path class="ed042042-4501-4d09-bdcb-cfadae2c940e" d="M32.22,6.33a35.82,35.82,0,0,0-8.17-1.8C30,11,35.27,21.5,36.53,26.16a20.66,20.66,0,0,0,2.87,5.73c1.75-4.39,3.58-5.95,4.44-11.64C45.27,10.82,34.86,7.24,32.22,6.33Z"/></svg>