<svg id="ff4dfe14-0c45-4850-93ef-31714e76064b" data-name="Ebene 1" xmlns="http://www.w3.org/2000/svg" viewBox="0 0 161.31 75.62"><defs><style>.f4eddba1-24ec-4d8a-b618-ef7608a61e1f{fill:#333;}</style></defs><title>portfolio_sfgbb</title><path class="f4eddba1-24ec-4d8a-b618-ef7608a61e1f" d="M150,35.63c-.18-.08-.28-.34-.4-.5.08-.12.1-.21.16-.25l1.62-1c6-4,9.17-9.51,8.65-16.83S155.37,4.74,148.52,2.17A21.89,21.89,0,0,0,142,.53C135,.19,128,.12,120.91,0c-4.62-.07-9.25,0-14,0v75.3a8,8,0,0,0,1.08.19c8.49,0,17,.18,25.48.09a34.79,34.79,0,0,0,14.89-3.41c6.41-3.11,10.73-8,12.34-15.06C162.91,47.42,159,39.67,150,35.63ZM124,13.51c4.3.28,8.37.24,12.32.88,3.34.55,5.14,3.05,5.44,6.19a8.17,8.17,0,0,1-4.55,8.5c-3.81,1.88-7.92,1.62-12,1.49a1.63,1.63,0,0,1-1.16-1.1C124,24.38,124,19.28,124,13.51ZM136,60.9c-3.39.7-7,.54-10.46.55-.5,0-1.39-1.17-1.44-1.85-.17-2.38-.07-4.79-.07-7.19s0-4.79,0-7.19c0-1.13.24-1.9,1.56-1.82,3.42.22,6.91.08,10.24.74,4.67.92,7,4,7,8.13S140.46,60,136,60.9Z"/><path class="f4eddba1-24ec-4d8a-b618-ef7608a61e1f" d="M43,35.61c-.17,0-.27-.35-.45-.61l1.06-.65c.34-.2.7-.39,1-.62,5.93-4,9-9.47,8.45-16.69C52.54,9.59,48.46,4.76,41.63,2.17a20.44,20.44,0,0,0-6-1.57C28.42.25,21.22.14,14,0,9.39-.06,4.76,0,0,0V75.36c.62.07,1,.15,1.4.15,8,.06,16,.27,24,.09A47.79,47.79,0,0,0,36.34,74c7.55-2,13.57-6.17,16.5-13.77C57.09,49.25,52.22,38.38,43,35.61ZM17.19,14c4.69-.24,9.35-1,13.84,1a6.48,6.48,0,0,1,3.88,6.38,8,8,0,0,1-4.67,7.75c-4.14,2-8.53,1.61-13,1.38ZM28.41,61.1a53.27,53.27,0,0,1-9.79.36c-.54,0-1.46-1.14-1.51-1.8-.18-2.46-.07-4.95-.07-7.44s-.09-4.81.08-7.2c0-.57.93-1.55,1.42-1.54a59.79,59.79,0,0,1,10,.57c4.78.88,7.33,4,7.36,8.16A8.6,8.6,0,0,1,28.41,61.1Z"/><path class="f4eddba1-24ec-4d8a-b618-ef7608a61e1f" d="M83,44.5a72.4,72.4,0,0,0-10.94-.9c-.47,0-1.39.72-1.39,1.12-.1,5.42-.07,10.85-.07,16.45,4.55.5,8.83.88,13-.72a8.28,8.28,0,0,0,5.58-8.4A7.42,7.42,0,0,0,83,44.5Z"/><path class="f4eddba1-24ec-4d8a-b618-ef7608a61e1f" d="M70.68,28.74c0,.59.69,1.62,1.09,1.64,4,.17,8,.48,11.78-1.35a8,8,0,0,0,4.6-8.68c-.5-3.47-2.66-5.71-6.64-6.17-3.08-.35-6.22-.13-9.33-.21-1.33,0-1.59.68-1.57,1.82,0,2.15,0,4.32,0,6.48h0C70.63,24.43,70.55,26.59,70.68,28.74Z"/></svg>