<svg id="Ebene_1" data-name="Ebene 1" xmlns="http://www.w3.org/2000/svg" xmlns:xlink="http://www.w3.org/1999/xlink" viewBox="0 0 1190.55 841.89"><defs><style>.cls-1,.cls-10,.cls-4,.cls-7,.cls-8,.cls-9{fill:none;}.cls-2{clip-path:url(#clip-path);}.cls-3{fill:#fff;}.cls-4,.cls-8,.cls-9{stroke:#fff;}.cls-4{stroke-width:2px;}.cls-5,.cls-6{fill:#333;}.cls-6,.cls-7{stroke:#333;}.cls-10,.cls-6,.cls-7,.cls-8,.cls-9{stroke-miterlimit:10;}.cls-6,.cls-7,.cls-8{stroke-width:10px;}.cls-10,.cls-9{stroke-width:6px;}.cls-10{stroke:#1d1d1b;}</style><clipPath id="clip-path"><rect class="cls-1" x="150.29" y="275.06" width="27.76" height="53.85"/></clipPath></defs><title>portfolio_Zeichenfläche 1</title><g class="cls-2"><path class="cls-3" d="M158.94,282.25a5.23,5.23,0,1,0,5.23-5.23,5.23,5.23,0,0,0-5.23,5.23"/><path class="cls-4" d="M158.94,282.25a5.23,5.23,0,1,0,5.23-5.23A5.23,5.23,0,0,0,158.94,282.25Z"/><path class="cls-5" d="M158.94,318.91a5.23,5.23,0,1,0,5.23-5.23,5.23,5.23,0,0,0-5.23,5.23"/><path class="cls-4" d="M158.94,318.91a5.23,5.23,0,1,0,5.23-5.23A5.23,5.23,0,0,0,158.94,318.91Z"/><path class="cls-3" d="M158,282.25a6.18,6.18,0,1,0,6.18-6.19,6.18,6.18,0,0,0-6.18,6.19"/><circle class="cls-4" cx="164.17" cy="282.25" r="6.18"/><line class="cls-4" x1="178.05" y1="300.92" x2="150.29" y2="300.92"/></g><line class="cls-4" x1="172.17" y1="318.91" x2="174.17" y2="318.91"/><g class="cls-2"><line class="cls-4" x1="154.17" y1="318.91" x2="156.17" y2="318.91"/><line class="cls-4" x1="164.17" y1="326.91" x2="164.17" y2="328.91"/></g><line class="cls-4" x1="164.17" y1="308.91" x2="164.17" y2="310.91"/><g class="cls-2"><line class="cls-4" x1="169.83" y1="324.57" x2="171.24" y2="325.98"/></g><line class="cls-4" x1="157.1" y1="311.84" x2="158.51" y2="313.25"/><g class="cls-2"><line class="cls-4" x1="158.51" y1="324.57" x2="157.1" y2="325.98"/></g><line class="cls-4" x1="171.24" y1="311.84" x2="169.83" y2="313.25"/><path class="cls-5" d="M266.14,275.91a24.63,24.63,0,1,1-24.62,24.63,24.66,24.66,0,0,1,24.62-24.63m0-10a34.63,34.63,0,1,0,34.63,34.63,34.63,34.63,0,0,0-34.63-34.63Z"/><circle class="cls-3" cx="266.14" cy="184.54" r="29.62"/><path class="cls-3" d="M266.14,159.91a24.63,24.63,0,1,1-24.62,24.63,24.66,24.66,0,0,1,24.62-24.63m0-10a34.63,34.63,0,1,0,34.63,34.63,34.63,34.63,0,0,0-34.63-34.63Z"/><circle class="cls-6" cx="382.14" cy="184.54" r="23.33"/><line class="cls-7" x1="382.14" y1="151.54" x2="382.14" y2="142.02"/><line class="cls-7" x1="382.14" y1="227.06" x2="382.14" y2="217.54"/><line class="cls-7" x1="415.14" y1="184.54" x2="424.66" y2="184.54"/><line class="cls-7" x1="339.62" y1="184.54" x2="349.14" y2="184.54"/><line class="cls-7" x1="405.48" y1="161.2" x2="412.21" y2="154.47"/><line class="cls-7" x1="352.08" y1="214.61" x2="358.81" y2="207.87"/><line class="cls-7" x1="405.48" y1="207.87" x2="412.21" y2="214.61"/><line class="cls-7" x1="352.08" y1="154.47" x2="358.81" y2="161.2"/><circle class="cls-8" cx="382.14" cy="300.54" r="23.33"/><line class="cls-8" x1="382.14" y1="267.54" x2="382.14" y2="258.02"/><line class="cls-8" x1="382.14" y1="343.06" x2="382.14" y2="333.54"/><line class="cls-8" x1="415.14" y1="300.54" x2="424.66" y2="300.54"/><line class="cls-8" x1="339.62" y1="300.54" x2="349.14" y2="300.54"/><line class="cls-8" x1="405.48" y1="277.2" x2="412.21" y2="270.47"/><line class="cls-8" x1="352.08" y1="330.61" x2="358.81" y2="323.87"/><line class="cls-8" x1="405.48" y1="323.87" x2="412.21" y2="330.61"/><line class="cls-8" x1="352.08" y1="270.47" x2="358.81" y2="277.2"/><polyline class="cls-9" points="656.68 245.22 619.67 267.76 582.66 245.22"/><polyline class="cls-10" points="656.68 289.74 619.67 312.29 582.66 289.74"/><polyline class="cls-10" points="694.86 234.79 731.87 212.25 768.88 234.79"/><polyline class="cls-9" points="463.63 269.26 500.64 246.72 537.66 269.26"/><polyline class="cls-10" points="463.63 312.76 500.64 290.21 537.66 312.76"/><line class="cls-10" x1="731.87" y1="212.25" x2="731.87" y2="305.81"/></svg>